<svg xmlns="http://www.w3.org/2000/svg" viewBox="0 0 220 220" role="img" aria-labelledby="title desc"><title id="title">REIS monogram</title><desc id="desc">Layered R monogram in navy, blue, teal and green on a white rounded tile.</desc><defs><linearGradient id="navy" x1="0" y1="0" x2="1" y2="1"><stop stop-color="#123f87"/><stop offset="1" stop-color="#061b4d"/></linearGradient><linearGradient id="blue" x1="0" y1="0" x2="1" y2="0"><stop stop-color="#11a7ef"/><stop offset="1" stop-color="#1555bb"/></linearGradient><linearGradient id="teal" x1="0" y1="0" x2="1" y2="1"><stop stop-color="#16c7c6"/><stop offset="1" stop-color="#078bb2"/></linearGradient><linearGradient id="green" x1="0" y1="0" x2="1" y2="1"><stop stop-color="#7bcf20"/><stop offset="1" stop-color="#008f3d"/></linearGradient><filter id="shadow" x="-20%" y="-20%" width="140%" height="140%"><feDropShadow dx="0" dy="4" stdDeviation="6" flood-color="#001f4f" flood-opacity="0.18"/></filter></defs><rect x="8" y="8" width="204" height="204" rx="34" fill="#ffffff" stroke="#d7e3f3" stroke-width="2" filter="url(#shadow)"/><g transform="translate(30 28)"><path d="M28 18h62c25 0 45 20 45 45 0 17-9 31-23 39l26 40h-29L79 96H58l13-22h18c10 0 18-8 18-18s-8-18-18-18H45z" fill="url(#navy)"/><path d="M20 48h58c10 0 18 8 18 18H42z" fill="url(#blue)"/><path d="M26 79h56l-13 22H45z" fill="url(#teal)"/><path d="M35 110h48l18 28H57z" fill="url(#green)"/></g></svg>