<svg xmlns="http://www.w3.org/2000/svg" viewBox="0 0 160 160" role="img" aria-labelledby="title desc"><title id="title">REIS globe</title><desc id="desc">Abstract global sphere formed from bright blue, teal and green engineering bands on a dark background.</desc><defs><linearGradient id="g1" x1="0" y1="0" x2="1" y2="1"><stop stop-color="#5ed1ff"/><stop offset=".52" stop-color="#2ca3ff"/><stop offset="1" stop-color="#0d8cff"/></linearGradient><linearGradient id="g2" x1="0" y1="0" x2="1" y2="1"><stop stop-color="#6de5e8"/><stop offset="1" stop-color="#16c7c6"/></linearGradient><linearGradient id="g3" x1="0" y1="0" x2="1" y2="1"><stop stop-color="#b8f04d"/><stop offset="1" stop-color="#7bcf20"/></linearGradient><clipPath id="sphere"><circle cx="80" cy="80" r="66"/></clipPath></defs><g clip-path="url(#sphere)"><path d="M-6 23C35 6 88 5 166 24l-8 25C83 31 35 34 2 50z" fill="url(#g1)"/><path d="M-8 58c48-18 105-18 177 1l-5 28C94 68 38 70-2 88z" fill="url(#g1)"/><path d="M-4 94c48-15 105-14 168 4l-9 28C95 109 42 108 5 123z" fill="url(#g2)"/><path d="M10 128c42-9 90-4 139 11l-15 25H27z" fill="url(#g3)"/><path d="M10 20C53 44 102 46 151 30M3 58c52 27 107 29 158 9M2 96c52 25 105 27 156 8" fill="none" stroke="#ffffff" stroke-width="7" opacity=".92"/></g><circle cx="80" cy="80" r="66" fill="none" stroke="#8bdfff" stroke-width="2" opacity=".75"/></svg>
